# xmcd
#
# Track frame offsets:
#	150
#	17367
#	34598
#	54914
#	70721
#	91568
#	106567
#	121903
#	145082
#	152726
#	171433
#	187483
#	204953
#	221434
#	243823
#
# Disc length: 3524 seconds
#
# Revision: 1
# Processed by: cddbd v1.5PL3 Copyright (c) Steve Scherf et al.
# Submitted via: audiograbber 1.82.02
#
DISCID=b70dc20f
DTITLE=Jan James - Jan James
DYEAR=1998
DGENRE=Blues
TTITLE0=Lonesome Town 
TTITLE1=Fall Back Down Again 
TTITLE2=We Live
TTITLE3=To Believe
TTITLE4=Too Mutch To Loose
TTITLE5=This Ain't No Livin' 
TTITLE6=Always Knockin' 
TTITLE7=Time Won't Let Me Down 
TTITLE8=Help Me 
TTITLE9=Dance 
TTITLE10=Down The River 
TTITLE11=Soul Desire 
TTITLE12=Social Graces 
TTITLE13=Last Train 
TTITLE14=Color Of The Rose 
EXTD=
EXTT0=
EXTT1=
EXTT2=
EXTT3=
EXTT4=
EXTT5=
EXTT6=
EXTT7=
EXTT8=
EXTT9=
EXTT10=
EXTT11=
EXTT12=
EXTT13=
EXTT14=
PLAYORDER=
